<?xml version="1.0" encoding="iso-8859-1"?>
<!-- Generator: Adobe Illustrator 19.0.0, SVG Export Plug-In . SVG Version: 6.00 Build 0)  -->
<svg version="1.1" id="Capa_1" xmlns="http://www.w3.org/2000/svg" xmlns:xlink="http://www.w3.org/1999/xlink" x="0px" y="0px"
	 viewBox="0 0 512.002 512.002" style="enable-background:new 0 0 512.002 512.002;" xml:space="preserve">
<g>
	<g>
		<circle cx="181.51" cy="43.05" r="42.06"/>
	</g>
</g>
<g>
	<g>
		<path d="M432.978,1.946c-1.505-2.095-4.423-2.574-6.518-1.069l-90.474,64.977c-9.549-3.171-20.194,1.156-24.665,10.467
			l-5.31,11.06l-13.12,9.422c-0.235,0.17-0.485,0.363-0.709,0.553c-5.468,4.632-5.321,13.241,0.582,17.618l-8.185,17.049
			l-24.664-22.452c-7.252-6.601-16.661-10.28-26.467-10.359c-41.824-0.334-66.175,0.151-106.521,0.151
			c-26.349,0-48.642,20.584-48.774,46.933v149.093c-0.056,11.208,8.984,20.339,20.192,20.396c0.035,0,0.069,0,0.104,0
			c11.16,0,20.236-9.019,20.292-20.192V146.499c0-0.001,0-0.003,0-0.004c0.014-2.428,1.991-4.387,4.419-4.379
			c2.428,0.007,4.392,1.978,4.392,4.406v341.127c0,13.45,10.904,24.353,24.353,24.353c13.449,0,24.353-10.903,24.353-24.353V292.994
			h10.514v194.655c0,13.45,10.904,24.353,24.353,24.353c13.449,0,24.353-10.903,24.353-24.353c0-71.956,0-273.332,0-345.295
			l42.307,37.874c10.133,8.976,25.953,5.676,31.753-6.407l38.374-79.934c2.356-4.907,2.548-10.285,0.98-15.081l83.312-70.572
			C434.034,6.675,434.406,3.934,432.978,1.946z"/>
	</g>
</g>
<g>
</g>
<g>
</g>
<g>
</g>
<g>
</g>
<g>
</g>
<g>
</g>
<g>
</g>
<g>
</g>
<g>
</g>
<g>
</g>
<g>
</g>
<g>
</g>
<g>
</g>
<g>
</g>
<g>
</g>
</svg>
