<?xml version="1.0" encoding="iso-8859-1"?>
<!-- Generator: Adobe Illustrator 16.0.0, SVG Export Plug-In . SVG Version: 6.00 Build 0)  -->
<!DOCTYPE svg PUBLIC "-//W3C//DTD SVG 1.1//EN" "http://www.w3.org/Graphics/SVG/1.1/DTD/svg11.dtd">
<svg version="1.1" id="Capa_1" xmlns="http://www.w3.org/2000/svg" xmlns:xlink="http://www.w3.org/1999/xlink" x="0px" y="0px"
	 width="463.902px" height="463.902px" viewBox="0 0 463.902 463.902" style="enable-background:new 0 0 463.902 463.902;"
	 xml:space="preserve">
<g>
	<g id="Layer_2_9_">
		<g>
			<path d="M90.722,80.25c4.478,2.52,34.62,17.082,49.182,24.094c0.057,5.652,0.182,15.426,0.374,15.592
				c1.605,13.996,4.36,29.545,5.158,33.936c-1.324,0.734-8.129,5.184-8.129,19.025c0.006,0.078,0.013,0.15,0.019,0.229
				c-0.01,0.363-0.019,0.729-0.019,1.105c2.929,38.471,18.229,21.891,21.384,38.742c5.248,28.018,30.056,48.289,45.498,55.287
				c8.925,4.043,18.11,6.105,27.763,6.303c9.653-0.197,18.838-2.26,27.763-6.303c15.442-6.998,40.25-27.27,45.498-55.287
				c3.155-16.852,18.455-0.271,21.385-38.742c0-0.377-0.01-0.742-0.02-1.105c0.006-0.078,0.013-0.15,0.02-0.229
				c0-13.842-6.807-18.291-8.13-19.025c0.799-4.391,3.554-19.939,5.158-33.936c0.191-0.166,0.317-9.939,0.374-15.592
				c7.998-3.852,20.692-9.979,31.256-15.139v37.189c-2.934,1.732-4.997,4.789-4.997,8.434c0,3.227,1.638,5.961,4.025,7.768
				c0,0-4.244,23.855-5.616,30.871c-1.372,7.014,24.201,5.607,23.05,0c-1.15-5.609-5.613-30.871-5.613-30.871
				c2.388-1.807,4.025-4.541,4.025-7.768c0-3.646-2.054-6.701-4.986-8.434V84.346c3.937-1.953,6.867-3.438,8.037-4.096
				c3.169-1.783,4.875-4.064,4.515-6.434c0.433-2.471-1.354-5.127-6.149-7.475C337.324,49.589,250.076,6.892,241.449,2.777
				c-3.764-1.795-6.862-2.588-9.497-2.777c-2.635,0.189-5.733,0.982-9.497,2.777C213.828,6.892,126.58,49.59,92.358,66.341
				c-4.797,2.348-6.583,5.004-6.149,7.475C85.847,76.186,87.554,78.467,90.722,80.25z"/>
			<path d="M348.104,320.885c-16.101-5.805-44.125-22.541-48.927-25.123c-1.244-0.723-2.686-1.145-4.229-1.145
				c-3.369,0-6.269,1.977-7.619,4.838c-13.275,22.223-37.886,86.846-55.058,88.045c-0.105-0.008-0.213-0.029-0.319-0.041
				c-0.106,0.012-0.214,0.033-0.319,0.041c-17.172-1.199-41.783-65.822-55.058-88.045c-1.351-2.861-4.25-4.838-7.619-4.838
				c-1.544,0-2.985,0.422-4.23,1.145c-4.801,2.582-32.826,19.318-48.926,25.123c-54.042,19.486-78.348,39.359-78.348,52.91
				c0,0.393,0,0.842,0,1.334c0,16.504,0,87.439,0,87.439c0,0.864,0,1.334,0,1.334h194.181h0.319h0.319h194.181c0,0,0-0.47,0-1.334
				c0,0,0-70.937,0-87.439c0-0.492,0-0.941,0-1.334C426.451,360.244,402.146,340.371,348.104,320.885z"/>
		</g>
	</g>
</g>
<g>
</g>
<g>
</g>
<g>
</g>
<g>
</g>
<g>
</g>
<g>
</g>
<g>
</g>
<g>
</g>
<g>
</g>
<g>
</g>
<g>
</g>
<g>
</g>
<g>
</g>
<g>
</g>
<g>
</g>
</svg>
